<svg xmlns="http://www.w3.org/2000/svg" version="1.1" xmlns:xlink="http://www.w3.org/1999/xlink" xmlns:svgjs="http://svgjs.com/svgjs" width="1440" height="560" preserveAspectRatio="none" viewBox="0 0 1440 560"><g mask="url(&quot;#SvgjsMask1000&quot;)" fill="none"><rect width="1440" height="560" x="0" y="0" fill="#0e2a47"></rect><path d="M1000.07 104.21 a179.25 179.25 0 1 0 358.5 0 a179.25 179.25 0 1 0 -358.5 0z" fill="rgba(28, 83, 142, 0.4)" class="triangle-float1"></path><path d="M649.4 17.83 a146.62 146.62 0 1 0 293.24 0 a146.62 146.62 0 1 0 -293.24 0z" fill="rgba(28, 83, 142, 0.4)" class="triangle-float1"></path><path d="M1177.98 79.9 a99.73 99.73 0 1 0 199.46 0 a99.73 99.73 0 1 0 -199.46 0z" fill="rgba(28, 83, 142, 0.4)" class="triangle-float2"></path><path d="M1184.14 313.34 a97.24 97.24 0 1 0 194.48 0 a97.24 97.24 0 1 0 -194.48 0z" fill="rgba(28, 83, 142, 0.4)" class="triangle-float1"></path><path d="M812.43 339.91 a145.84 145.84 0 1 0 291.68 0 a145.84 145.84 0 1 0 -291.68 0z" fill="rgba(28, 83, 142, 0.4)" class="triangle-float3"></path><path d="M-90.57 401.04 a144.41 144.41 0 1 0 288.82 0 a144.41 144.41 0 1 0 -288.82 0z" fill="rgba(28, 83, 142, 0.4)" class="triangle-float2"></path><path d="M139.73 434.98 a145.06 145.06 0 1 0 290.12 0 a145.06 145.06 0 1 0 -290.12 0z" fill="rgba(28, 83, 142, 0.4)" class="triangle-float3"></path><path d="M894.51 515.63 a172.58 172.58 0 1 0 345.16 0 a172.58 172.58 0 1 0 -345.16 0z" fill="rgba(28, 83, 142, 0.4)" class="triangle-float1"></path></g><defs><mask id="SvgjsMask1000"><rect width="1440" height="560" fill="#ffffff"></rect></mask><style>
            @keyframes float1 {
                0%{transform: translate(0, 0)}
                50%{transform: translate(-10px, 0)}
                100%{transform: translate(0, 0)}
            }

            .triangle-float1 {
                animation: float1 5s infinite;
            }

            @keyframes float2 {
                0%{transform: translate(0, 0)}
                50%{transform: translate(-5px, -5px)}
                100%{transform: translate(0, 0)}
            }

            .triangle-float2 {
                animation: float2 4s infinite;
            }

            @keyframes float3 {
                0%{transform: translate(0, 0)}
                50%{transform: translate(0, -10px)}
                100%{transform: translate(0, 0)}
            }

            .triangle-float3 {
                animation: float3 6s infinite;
            }
        </style></defs></svg>